HIERARCHY
ROOT Hips
{
	OFFSET 0.00 0.00 0.00
	CHANNELS 6 Xposition Yposition Zposition Xrotation Zrotation Yrotation
	JOINT Spine
	{
		OFFSET	0.0000	9.2263	1.5771
		CHANNELS 3 Xrotation Yrotation Zrotation
		JOINT Spine1
		{
			OFFSET	0.0000	16.2540	-0.1656
			CHANNELS 3 Xrotation Yrotation Zrotation
			JOINT Spine2
			{
				OFFSET	0.0000	13.6396	-1.2923
				CHANNELS 3 Xrotation Yrotation Zrotation
				JOINT Neck
				{
					OFFSET	0.0000	13.8774	-4.3542
					CHANNELS 3 Xrotation Yrotation Zrotation
					JOINT Neck1
					{
						OFFSET	0.0000	4.3400	0.9269
						CHANNELS 3 Xrotation Yrotation Zrotation
						JOINT Head
						{
							OFFSET	0.0000	4.0266	0.8585
							CHANNELS 3 Xrotation Yrotation Zrotation
							JOINT HeadTop_End
							{
								OFFSET	0.0000	21.0545	4.8205
								CHANNELS 3 Zrotation Yrotation Xrotation
								End Site
								{
									OFFSET 0.0000 0.0000 0.0000
								}
							}
							JOINT L_Ear
							{
								OFFSET	6.8586	8.8620	3.3161
								CHANNELS 3 Zrotation Yrotation Xrotation
								End Site
								{
									OFFSET 0.0000 0.0000 0.0000
								}
							}
							JOINT Jaw
							{
								OFFSET	0.0038	6.2350	4.4131
								CHANNELS 3 Zrotation Yrotation Xrotation
								JOINT TongueBack
								{
									OFFSET	0.0000	-3.4114	4.6032
									CHANNELS 3 Zrotation Yrotation Xrotation
									JOINT TongueMid
									{
										OFFSET	0.0000	0.0209	1.6663
										CHANNELS 3 Zrotation Yrotation Xrotation
										End Site
										{
											OFFSET 0.0000 -0.4509 1.2790
										}
									}
								}
								JOINT Chin
								{
									OFFSET	-0.0038	-6.2776	9.0439
									CHANNELS 3 Zrotation Yrotation Xrotation
									End Site
									{
										OFFSET 0.0000 0.0000 0.0000
									}
								}
								JOINT LowerChin
								{
									OFFSET	-0.0038	-8.3551	5.8970
									CHANNELS 3 Zrotation Yrotation Xrotation
									End Site
									{
										OFFSET 0.0000 0.0000 0.0000
									}
								}
							}
							JOINT L_Temple
							{
								OFFSET	6.7164	11.9530	7.4033
								CHANNELS 3 Zrotation Yrotation Xrotation
								End Site
								{
									OFFSET 0.0000 0.0000 0.0000
								}
							}
							JOINT L_IOuterBrow
							{
								OFFSET	5.1850	11.3348	12.3701
								CHANNELS 3 Xrotation Yrotation Zrotation
								End Site
								{
									OFFSET 0.0000 0.0000 0.0000
								}
							}
							JOINT L_MidBrow
							{
								OFFSET	3.3668	11.4156	13.6166
								CHANNELS 3 Zrotation Yrotation Xrotation
								End Site
								{
									OFFSET 0.0000 0.0000 0.0000
								}
							}
							JOINT L_InnerBrow
							{
								OFFSET	1.6599	10.7576	14.1150
								CHANNELS 3 Zrotation Yrotation Xrotation
								End Site
								{
									OFFSET 0.0000 0.0000 0.0000
								}
							}
							JOINT L_Eye
							{
								OFFSET	3.0989	9.6989	11.4382
								CHANNELS 3 Zrotation Yrotation Xrotation
								End Site
								{
									OFFSET 0.0000 0.0000 0.0000
								}
							}
							JOINT L_EyelidLower
							{
								OFFSET	3.0989	9.6989	11.4382
								CHANNELS 3 Zrotation Yrotation Xrotation
								End Site
								{
									OFFSET 0.0000 0.0000 0.0000
								}
							}
							JOINT L_EyelidUpper
							{
								OFFSET	3.0989	9.6989	11.4382
								CHANNELS 3 Zrotation Yrotation Xrotation
								End Site
								{
									OFFSET 0.0000 0.0000 0.0000
								}
							}
							JOINT L_InnerCheek
							{
								OFFSET	2.1484	7.4937	13.4347
								CHANNELS 3 Zrotation Yrotation Xrotation
								End Site
								{
									OFFSET 0.0000 0.0000 0.0000
								}
							}
							JOINT L_LowerCheek
							{
								OFFSET	4.3527	2.5675	9.9423
								CHANNELS 3 Zrotation Yrotation Xrotation
								End Site
								{
									OFFSET 0.0000 0.0000 0.0000
								}
							}
							JOINT L_LipLower
							{
								OFFSET	1.2586	2.3762	13.5915
								CHANNELS 3 Zrotation Yrotation Xrotation
								End Site
								{
									OFFSET 0.0000 0.0000 0.0000
								}
							}
							JOINT L_LipUpper
							{
								OFFSET	1.2981	3.1535	13.8987
								CHANNELS 3 Zrotation Yrotation Xrotation
								End Site
								{
									OFFSET 0.0000 0.0000 0.0000
								}
							}
							JOINT LipMidLower
							{
								OFFSET	0.0000	2.4182	14.0113
								CHANNELS 3 Xrotation Yrotation Zrotation
								End Site
								{
									OFFSET 0.0000 0.0000 0.0000
								}
							}
							JOINT LipMidUpper
							{
								OFFSET	0.0000	3.2177	14.3127
								CHANNELS 3 Zrotation Yrotation Xrotation
								End Site
								{
									OFFSET 0.0000 0.0000 0.0000
								}
							}
							JOINT L_CheekFold
							{
								OFFSET	2.8997	4.8397	12.9905
								CHANNELS 3 Zrotation Yrotation Xrotation
								End Site
								{
									OFFSET 0.0000 0.0000 0.0000
								}
							}
							JOINT L_Nostril
							{
								OFFSET	1.2793	5.2449	14.0405
								CHANNELS 3 Zrotation Yrotation Xrotation
								End Site
								{
									OFFSET 0.0000 0.0000 0.0000
								}
							}
							JOINT Scalp
							{
								OFFSET	0.0038	15.5120	8.5871
								CHANNELS 3 Zrotation Yrotation Xrotation
								End Site
								{
									OFFSET 0.0000 0.0000 0.0000
								}
							}
							JOINT L_OuterCheek
							{
								OFFSET	4.8050	7.1686	11.6790
								CHANNELS 3 Zrotation Yrotation Xrotation
								End Site
								{
									OFFSET 0.0000 0.0000 0.0000
								}
							}
							JOINT R_LipLower
							{
								OFFSET	-1.2586	2.3762	13.5915
								CHANNELS 3 Zrotation Yrotation Xrotation
								End Site
								{
									OFFSET 0.0000 0.0000 0.0000
								}
							}
							JOINT RightNostril
							{
								OFFSET	-1.2793	5.2449	14.0405
								CHANNELS 3 Zrotation Yrotation Xrotation
								End Site
								{
									OFFSET 0.0000 0.0000 0.0000
								}
							}
							JOINT R_CheekFold
							{
								OFFSET	-2.8997	4.8397	12.9905
								CHANNELS 3 Zrotation Yrotation Xrotation
								End Site
								{
									OFFSET 0.0000 0.0000 0.0000
								}
							}
							JOINT R_LowerCheek
							{
								OFFSET	-4.3527	2.5675	9.9423
								CHANNELS 3 Zrotation Yrotation Xrotation
								End Site
								{
									OFFSET 0.0000 0.0000 0.0000
								}
							}
							JOINT R_LipUpper
							{
								OFFSET	-1.2981	3.1535	13.8987
								CHANNELS 3 Zrotation Yrotation Xrotation
								End Site
								{
									OFFSET 0.0000 0.0000 0.0000
								}
							}
							JOINT R_OuterCheek
							{
								OFFSET	-4.8050	7.1686	11.6790
								CHANNELS 3 Zrotation Yrotation Xrotation
								End Site
								{
									OFFSET 0.0000 0.0000 0.0000
								}
							}
							JOINT MidBrows
							{
								OFFSET	0.0000	10.8004	14.2738
								CHANNELS 3 Zrotation Yrotation Xrotation
								End Site
								{
									OFFSET 0.0000 0.0000 0.0000
								}
							}
							JOINT R_InnerBrow
							{
								OFFSET	-1.6599	10.7576	14.1150
								CHANNELS 3 Zrotation Yrotation Xrotation
								End Site
								{
									OFFSET 0.0000 0.0000 0.0000
								}
							}
							JOINT R_MidBrow
							{
								OFFSET	-3.3668	11.4156	13.6166
								CHANNELS 3 Zrotation Yrotation Xrotation
								End Site
								{
									OFFSET 0.0000 0.0000 0.0000
								}
							}
							JOINT R_IOuterBrow
							{
								OFFSET	-5.1850	11.3348	12.3701
								CHANNELS 3 Xrotation Yrotation Zrotation
								End Site
								{
									OFFSET 0.0000 0.0000 0.0000
								}
							}
							JOINT R_Eye
							{
								OFFSET	-3.0989	9.6989	11.4382
								CHANNELS 3 Zrotation Yrotation Xrotation
								End Site
								{
									OFFSET 0.0000 0.0000 0.0000
								}
							}
							JOINT R_EyelidLower
							{
								OFFSET	-3.0989	9.6989	11.4382
								CHANNELS 3 Zrotation Yrotation Xrotation
								End Site
								{
									OFFSET 0.0000 0.0000 0.0000
								}
							}
							JOINT R_EyelidUpper
							{
								OFFSET	-3.0989	9.6989	11.4382
								CHANNELS 3 Zrotation Yrotation Xrotation
								End Site
								{
									OFFSET 0.0000 0.0000 0.0000
								}
							}
							JOINT R_Temple
							{
								OFFSET	-6.7164	11.9530	7.4033
								CHANNELS 3 Zrotation Yrotation Xrotation
								End Site
								{
									OFFSET 0.0000 0.0000 0.0000
								}
							}
							JOINT R_Ear
							{
								OFFSET	-6.8586	8.8620	3.3161
								CHANNELS 3 Zrotation Yrotation Xrotation
								End Site
								{
									OFFSET 0.0000 0.0000 0.0000
								}
							}
							JOINT R_InnerCheek
							{
								OFFSET	-2.1484	7.4937	13.4347
								CHANNELS 3 Zrotation Yrotation Xrotation
								End Site
								{
									OFFSET 0.0000 0.0000 0.0000
								}
							}
							JOINT L_LipCorner
							{
								OFFSET	2.9076	2.9095	12.5938
								CHANNELS 3 Zrotation Yrotation Xrotation
								JOINT L_LipCornerLowTweak
								{
									OFFSET	-0.8072	-0.3254	0.4546
									CHANNELS 3 Zrotation Yrotation Xrotation
									End Site
									{
										OFFSET 0.0000 0.0000 0.0000
									}
								}
								JOINT L_LipCornerUpTweak
								{
									OFFSET	-0.7251	0.0237	0.5782
									CHANNELS 3 Zrotation Yrotation Xrotation
									End Site
									{
										OFFSET 0.0000 0.0000 0.0000
									}
								}
							}
							JOINT R_gLipCorner
							{
								OFFSET	-2.9076	2.9095	12.5938
								CHANNELS 3 Zrotation Yrotation Xrotation
								JOINT R_gLipCornerUpTweak
								{
									OFFSET	0.7251	0.0237	0.5782
									CHANNELS 3 Zrotation Yrotation Xrotation
									End Site
									{
										OFFSET 0.0000 0.0000 0.0000
									}
								}
								JOINT R_gLipCornerLowTweak
								{
									OFFSET	0.8072	-0.3254	0.4546
									CHANNELS 3 Zrotation Yrotation Xrotation
									End Site
									{
										OFFSET 0.0000 0.0000 0.0000
									}
								}
							}
						}
						JOINT Throat
						{
							OFFSET	0.0000	-0.6141	8.3185
							CHANNELS 3 Zrotation Yrotation Xrotation
							End Site
							{
								OFFSET 0.0000 0.0000 0.0000
							}
						}
					}
				}
				JOINT LeftShoulder
				{
					OFFSET	6.1442	10.1870	-3.7932
					CHANNELS 3 Zrotation Xrotation Yrotation
					JOINT LeftArm
					{
						OFFSET	12.3191	-1.1130	-1.7935
						CHANNELS 3 Zrotation Xrotation Yrotation
						JOINT LeftForeArm
						{
							OFFSET	27.6870	0.0000	0.0000
							CHANNELS 3 Yrotation Zrotation Xrotation
							JOINT LeftHand
							{
								OFFSET	27.8738	0.0000	0.0000
								CHANNELS 3 Zrotation Yrotation Xrotation
								JOINT LeftHandThumb1
								{
									OFFSET	2.3785	-1.0029	2.6209
									CHANNELS 3 Zrotation Xrotation Yrotation
									JOINT LeftHandThumb2
									{
										OFFSET	3.3624	-1.0029	2.8398
										CHANNELS 3 Zrotation Xrotation Yrotation
										JOINT LeftHandThumb3
										{
											OFFSET	4.5018	-1.3445	2.1783
											CHANNELS 3 Zrotation Xrotation Yrotation
											End Site
											{
												OFFSET 2.6000 -1.0000 1.0000
											}
										}
									}
								}
								JOINT LeftHandMiddle1
								{
									OFFSET	10.4639	0.6148	0.4298
									CHANNELS 3 Zrotation Yrotation Xrotation
									JOINT LeftHandMiddle2
									{
										OFFSET	5.7921	0.0000	0.0000
										CHANNELS 3 Zrotation Yrotation Xrotation
										JOINT LeftHandMiddle3
										{
											OFFSET	3.7132	0.0000	0.0000
											CHANNELS 3 Zrotation Yrotation Xrotation
											End Site
											{
												OFFSET 2.3000 0.0000 0.0000
											}
										}
									}
								}
								JOINT LeftHandIndex1
								{
									OFFSET	10.3945	0.6148	2.7055
									CHANNELS 3 Zrotation Yrotation Xrotation
									JOINT LeftHandIndex2
									{
										OFFSET	5.5493	0.0000	0.0000
										CHANNELS 3 Zrotation Yrotation Xrotation
										JOINT LeftHandIndex3
										{
											OFFSET	3.3911	0.0000	0.0000
											CHANNELS 3 Zrotation Yrotation Xrotation
											End Site
											{
												OFFSET 2.5000 0.0000 0.0000
											}
										}
									}
								}
								JOINT LeftHandRing1
								{
									OFFSET	10.3252	0.3211	-1.8755
									CHANNELS 3 Zrotation Yrotation Xrotation
									JOINT LeftHandRing2
									{
										OFFSET	5.4452	0.0000	0.0000
										CHANNELS 3 Zrotation Yrotation Xrotation
										JOINT LeftHandRing3
										{
											OFFSET	3.7132	0.0000	0.0000
											CHANNELS 3 Zrotation Yrotation Xrotation
											End Site
											{
												OFFSET 2.0000 0.0000 0.0000
											}
										}
									}
								}
								JOINT LeftHandPinky1
								{
									OFFSET	10.0130	-0.0783	-3.9671
									CHANNELS 3 Zrotation Yrotation Xrotation
									JOINT LeftHandPinky2
									{
										OFFSET	3.6763	0.0000	0.0000
										CHANNELS 3 Zrotation Yrotation Xrotation
										JOINT LeftHandPinky3
										{
											OFFSET	2.8113	0.0000	0.0000
											CHANNELS 3 Zrotation Yrotation Xrotation
											End Site
											{
												OFFSET 2.9000 0.0000 0.0000
											}
										}
									}
								}
							}
						}
					}
				}
				JOINT RightShoulder
				{
					OFFSET	-6.1402	10.1870	-3.7932
					CHANNELS 3 Zrotation Xrotation Yrotation
					JOINT RightArm
					{
						OFFSET	-12.3231	-1.1130	-1.7935
						CHANNELS 3 Zrotation Xrotation Yrotation
						JOINT RightForeArm
						{
							OFFSET	-27.6870	0.0000	0.0000
							CHANNELS 3 Yrotation Zrotation Xrotation
							JOINT RightHand
							{
								OFFSET	-27.8738	0.0000	0.0000
								CHANNELS 3 Zrotation Yrotation Xrotation
								JOINT RightHandThumb1
								{
									OFFSET	-2.5178	-0.9367	2.5137
									CHANNELS 3 Yrotation Xrotation Zrotation
									JOINT RightHandThumb2
									{
										OFFSET	-3.2638	-1.0870	2.9669
										CHANNELS 3 Zrotation Xrotation Yrotation
										JOINT RightHandThumb3
										{
											OFFSET	-4.4165	-1.3703	2.1350
											CHANNELS 3 Zrotation Xrotation Yrotation
											End Site
											{
												OFFSET -2.6000 -1.0000 1.0000
											}
										}
									}
								}
								JOINT RightHandIndex1
								{
									OFFSET	-10.4665	0.4896	2.7120
									CHANNELS 3 Zrotation Yrotation Xrotation
									JOINT RightHandIndex2
									{
										OFFSET	-5.3768	0.0000	0.0000
										CHANNELS 3 Zrotation Yrotation Xrotation
										JOINT RightHandIndex3
										{
											OFFSET	-3.3855	0.0000	0.0000
											CHANNELS 3 Zrotation Yrotation Xrotation
											End Site
											{
												OFFSET -2.6000 0.0000 0.0000
											}
										}
									}
								}
								JOINT RightHandMiddle1
								{
									OFFSET	-10.7596	0.4896	0.4278
									CHANNELS 3 Zrotation Yrotation Xrotation
									JOINT RightHandMiddle2
									{
										OFFSET	-5.6168	0.0000	0.0000
										CHANNELS 3 Zrotation Yrotation Xrotation
										JOINT RightHandMiddle3
										{
											OFFSET	-3.7364	0.0000	0.0000
											CHANNELS 3 Zrotation Yrotation Xrotation
											End Site
											{
												OFFSET -2.3000 0.0000 0.0000
											}
										}
									}
								}
								JOINT RightHandRing1
								{
									OFFSET	-10.4702	0.3879	-1.9363
									CHANNELS 3 Zrotation Yrotation Xrotation
									JOINT RightHandRing2
									{
										OFFSET	-5.4013	0.0000	0.0000
										CHANNELS 3 Zrotation Yrotation Xrotation
										JOINT RightHandRing3
										{
											OFFSET	-3.3916	0.0000	0.0000
											CHANNELS 3 Zrotation Yrotation Xrotation
											End Site
											{
												OFFSET -2.2000 0.0000 0.0000
											}
										}
									}
								}
								JOINT RightHandPinky1
								{
									OFFSET	-9.9715	-0.1191	-3.9540
									CHANNELS 3 Zrotation Yrotation Xrotation
									JOINT RightHandPinky2
									{
										OFFSET	-3.6528	0.0000	0.0000
										CHANNELS 3 Zrotation Yrotation Xrotation
										JOINT RightHandPinky3
										{
											OFFSET	-2.7820	0.0000	0.0000
											CHANNELS 3 Zrotation Yrotation Xrotation
											End Site
											{
												OFFSET -2.9000 0.0000 0.0000
											}
										}
									}
								}
							}
						}
					}
				}
			}
		}
	}
	JOINT LeftUpLeg
	{
		OFFSET	9.6338	-3.2733	0.0000
		CHANNELS 3 Xrotation Yrotation Zrotation
		JOINT LeftLeg
		{
			OFFSET	0.0000	-41.7300	-1.7300
			CHANNELS 3 Xrotation Yrotation Zrotation
			JOINT LeftFoot
			{
				OFFSET	0.0126	-39.1900	-0.8477
				CHANNELS 3 Xrotation Yrotation Zrotation
				JOINT LeftToeBase
				{
					OFFSET	-0.1833	-12.1931	8.2823
					CHANNELS 3 Xrotation Yrotation Zrotation
					End Site
					{
						OFFSET 0.0000 0.0000 12.7000
					}
				}
			}
		}
	}
	JOINT RightUpLeg
	{
		OFFSET	-9.6338	-3.2733	0.0000
		CHANNELS 3 Xrotation Yrotation Zrotation
		JOINT RightLeg
		{
			OFFSET	0.0000	-41.7300	-1.7300
			CHANNELS 3 Xrotation Yrotation Zrotation
			JOINT RightFoot
			{
				OFFSET	0.0126	-39.1900	-0.8477
				CHANNELS 3 Xrotation Yrotation Zrotation
				JOINT RightToeBase
				{
					OFFSET	-0.1833	-12.1931	8.2823
					CHANNELS 3 Xrotation Yrotation Zrotation
					End Site
					{
						OFFSET 0.0032 0.0000 12.7000
					}
				}
			}
		}
	}
}
MOTION
Frames: 3
Frame Time: 0.0166667
-0.5614 81.9115 -3.5235 -9.5545 0.1221 5.6764 5.8184 -2.9280 -0.5522 1.1620 -0.7699 0.2952 1.1602 -0.7750 0.3094 9.7924 0.0739 -0.5955 -0.0000 0.0000 -0.0000 8.1121 1.0208 -1.6143 0.0000 -0.0000 0.0000 0.0000 -0.0000 0.0000 0.0000 0.0000 -0.7385 0.0000 -0.0000 0.0000 0.0000 -0.0000 0.0000 0.0000 -0.0000 0.0000 0.0000 -0.0000 0.0000 0.0000 -0.0000 0.0000 -0.0000 0.0000 -0.0000 0.0000 -0.0000 0.0000 0.0000 -0.0000 0.0000 0.0000 -0.0000 0.0000 0.0000 -0.0000 0.0000 0.0000 -0.0000 0.0000 0.0000 -0.0000 0.0000 0.0000 -0.0000 0.0000 0.0000 -0.0000 0.0000 0.0000 -0.0000 0.0000 -0.0000 0.0000 -0.0000 0.0000 -0.0000 0.0000 0.0000 -0.0000 0.0000 0.0000 -0.0000 0.0000 0.0000 -0.0000 0.0000 0.0000 -0.0000 0.0000 0.0000 -0.0000 0.0000 0.0000 -0.0000 0.0000 0.0000 -0.0000 0.0000 0.0000 -0.0000 0.0000 0.0000 -0.0000 0.0000 0.0000 -0.0000 0.0000 0.0000 -0.0000 0.0000 0.0000 -0.0000 0.0000 0.0000 -0.0000 0.0000 -0.0000 0.0000 -0.0000 0.0000 -0.0000 0.0000 0.0000 -0.0000 0.0000 0.0000 -0.0000 0.0000 0.0000 -0.0000 0.0000 0.0000 -0.0000 0.0000 0.0000 -0.0000 0.0000 0.0000 -0.0000 0.0000 0.0000 -0.0000 0.0000 0.0000 -0.0000 0.0000 0.0000 -0.0000 0.0000 0.0000 -0.0000 0.0000 0.0000 -0.0000 0.0000 0.0000 -0.0000 0.0000 12.6823 28.3277 -6.6709 -17.9461 -85.1480 -67.9895 -65.2768 7.2705 0.4593 18.6984 -11.7766 -51.8094 6.5446 10.1780 5.9501 21.7344 10.1671 11.4156 22.3891 4.8343 12.8953 9.0029 -0.1526 1.0599 -0.0202 0.1647 -1.1215 11.0533 -0.0160 0.1810 9.5786 0.0632 0.8654 -0.0070 -0.2163 1.8638 10.9860 -0.2479 0.8123 9.2981 0.9392 -1.6385 -0.1281 0.6714 -4.9336 9.3518 0.8698 -2.8211 8.5781 2.3027 -6.6297 -0.0006 -0.6412 0.0683 5.1841 2.2141 -4.4924 -26.4134 27.3905 29.2679 -97.3429 -78.6430 -56.2627 60.1617 -4.9588 -12.0966 -13.6580 27.4531 -38.0366 -7.1553 9.3529 -7.6388 -21.6501 10.1613 -11.4492 -21.9340 7.7829 -18.5580 -9.4246 -0.0803 0.8571 0.0525 0.2163 1.8616 -10.8228 0.2469 0.8124 -8.8502 0.1498 1.0558 0.0512 -0.1679 -1.1192 -10.8851 0.0170 0.1807 -9.1378 -0.9383 -1.6450 0.1331 -0.6863 -4.9243 -9.1904 -0.8632 -2.8166 -8.4109 -2.2939 -6.6381 0.0567 0.6370 0.0722 -5.0234 -2.2023 -4.4907 -25.1236 -3.7983 13.2291 70.1192 3.8625 -7.7899 -32.7309 1.8645 -6.8496 -3.3058 0.0000 -0.0000 -34.8267 -22.3299 -21.7439 66.1874 -9.4038 -9.7029 -25.8826 -1.4948 14.5283 1.1706 -0.0000 -0.0000 
-0.4988 82.0644 -3.5291 -9.6244 0.3010 5.3867 6.0573 -2.8448 -0.2572 1.1682 -0.7594 0.2890 1.1759 -0.7638 0.2993 9.7993 0.0721 -0.5746 -0.0000 0.0000 -0.0000 7.8758 0.8547 -1.5768 0.0000 -0.0000 0.0000 0.0000 -0.0000 0.0000 0.0000 0.0000 -0.7385 0.0000 -0.0000 0.0000 0.0000 -0.0000 0.0000 0.0000 -0.0000 0.0000 0.0000 -0.0000 0.0000 0.0000 -0.0000 0.0000 -0.0000 0.0000 -0.0000 0.0000 -0.0000 0.0000 0.0000 -0.0000 0.0000 0.0000 -0.0000 0.0000 0.0000 -0.0000 0.0000 0.0000 -0.0000 0.0000 0.0000 -0.0000 0.0000 0.0000 -0.0000 0.0000 0.0000 -0.0000 0.0000 0.0000 -0.0000 0.0000 -0.0000 0.0000 -0.0000 0.0000 -0.0000 0.0000 0.0000 -0.0000 0.0000 0.0000 -0.0000 0.0000 0.0000 -0.0000 0.0000 0.0000 -0.0000 0.0000 0.0000 -0.0000 0.0000 0.0000 -0.0000 0.0000 0.0000 -0.0000 0.0000 0.0000 -0.0000 0.0000 0.0000 -0.0000 0.0000 0.0000 -0.0000 0.0000 0.0000 -0.0000 0.0000 0.0000 -0.0000 0.0000 0.0000 -0.0000 0.0000 -0.0000 0.0000 -0.0000 0.0000 -0.0000 0.0000 0.0000 -0.0000 0.0000 0.0000 -0.0000 0.0000 0.0000 -0.0000 0.0000 0.0000 -0.0000 0.0000 0.0000 -0.0000 0.0000 0.0000 -0.0000 0.0000 0.0000 -0.0000 0.0000 0.0000 -0.0000 0.0000 0.0000 -0.0000 0.0000 0.0000 -0.0000 0.0000 0.0000 -0.0000 0.0000 0.0000 -0.0000 0.0000 12.6637 28.3303 -6.6411 -18.8940 -85.5358 -68.2762 -66.0025 7.0167 0.0862 19.2921 -11.8144 -50.8241 6.5406 10.1733 5.9496 21.7239 10.1670 11.4207 22.3871 4.8302 12.8963 8.9783 -0.1521 1.0590 -0.0202 0.1652 -1.1210 11.0289 -0.0159 0.1809 9.5537 0.0652 0.8644 -0.0070 -0.2166 1.8633 10.9627 -0.2475 0.8123 9.2719 0.9394 -1.6398 -0.1284 0.6732 -4.9318 9.3288 0.8692 -2.8200 8.5503 2.3019 -6.6313 -0.0006 -0.6403 0.0690 5.1612 2.2127 -4.4918 -26.8634 27.4553 29.3698 -98.1216 -78.5672 -56.9458 60.0014 -5.0685 -11.9418 -14.2615 27.3132 -38.0443 -7.1534 9.3486 -7.6338 -21.6745 10.1644 -11.4447 -21.9318 7.7786 -18.5590 -9.4349 -0.0740 0.8595 0.0419 0.2169 1.8611 -10.8495 0.2473 0.8124 -8.8609 0.1499 1.0549 0.0524 -0.1684 -1.1187 -10.9108 0.0171 0.1806 -9.1467 -0.9396 -1.6459 0.1176 -0.6895 -4.9229 -9.2174 -0.8652 -2.8152 -8.4184 -2.2974 -6.6388 0.0506 0.6361 0.0729 -5.0504 -2.2051 -4.4889 -24.8317 -3.1599 13.2611 69.6636 3.7130 -7.7989 -32.5750 1.7404 -6.5383 -3.3727 -0.0000 -0.0000 -34.4160 -21.6740 -21.3683 65.8352 -9.5266 -9.6972 -25.5919 -1.8247 14.6472 1.1777 0.0000 -0.0001 
-0.4348 82.3991 -3.5027 -9.6493 0.4492 5.1150 6.1618 -2.7549 -0.0077 1.1708 -0.7457 0.2805 1.1776 -0.7491 0.2909 9.8340 0.0661 -0.5749 -0.0000 0.0000 -0.0000 7.7445 0.6147 -1.5727 0.0000 -0.0000 0.0000 0.0000 -0.0000 0.0000 0.0000 0.0000 -0.7385 0.0000 -0.0000 0.0000 0.0000 -0.0000 0.0000 0.0000 -0.0000 0.0000 0.0000 -0.0000 0.0000 0.0000 -0.0000 0.0000 -0.0000 0.0000 -0.0000 0.0000 -0.0000 0.0000 0.0000 -0.0000 0.0000 0.0000 -0.0000 0.0000 0.0000 -0.0000 0.0000 0.0000 -0.0000 0.0000 0.0000 -0.0000 0.0000 0.0000 -0.0000 0.0000 0.0000 -0.0000 0.0000 0.0000 -0.0000 0.0000 -0.0000 0.0000 -0.0000 0.0000 -0.0000 0.0000 0.0000 -0.0000 0.0000 0.0000 -0.0000 0.0000 0.0000 -0.0000 0.0000 0.0000 -0.0000 0.0000 0.0000 -0.0000 0.0000 0.0000 -0.0000 0.0000 0.0000 -0.0000 0.0000 0.0000 -0.0000 0.0000 0.0000 -0.0000 0.0000 0.0000 -0.0000 0.0000 0.0000 -0.0000 0.0000 0.0000 -0.0000 0.0000 0.0000 -0.0000 0.0000 -0.0000 0.0000 -0.0000 0.0000 -0.0000 0.0000 0.0000 -0.0000 0.0000 0.0000 -0.0000 0.0000 0.0000 -0.0000 0.0000 0.0000 -0.0000 0.0000 0.0000 -0.0000 0.0000 0.0000 -0.0000 0.0000 0.0000 -0.0000 0.0000 0.0000 -0.0000 0.0000 0.0000 -0.0000 0.0000 0.0000 -0.0000 0.0000 0.0000 -0.0000 0.0000 0.0000 -0.0000 0.0000 12.5049 28.2367 -6.4730 -22.6012 -85.8574 -71.3908 -66.7848 6.7680 -0.2323 19.7246 -11.9900 -49.8651 6.5290 10.1597 5.9480 21.6981 10.1670 11.4345 22.3814 4.8186 12.8992 8.9120 -0.1505 1.0565 -0.0205 0.1673 -1.1195 10.9649 -0.0159 0.1808 9.4865 0.0696 0.8620 -0.0070 -0.2175 1.8619 10.9018 -0.2467 0.8124 9.2006 0.9401 -1.6435 -0.1293 0.6782 -4.9265 9.2689 0.8679 -2.8170 8.4744 2.3002 -6.6358 -0.0035 -0.6378 0.0711 5.1016 2.2091 -4.4898 -27.4435 27.4681 29.5320 -99.4225 -78.4610 -58.2202 60.1051 -5.0995 -11.6479 -14.9993 27.1631 -38.0534 -7.1537 9.3493 -7.6346 -21.6921 10.1659 -11.4394 -21.9322 7.7793 -18.5589 -9.4557 -0.0700 0.8612 0.0259 0.2174 1.8612 -10.8765 0.2477 0.8123 -8.8817 0.1503 1.0551 0.0394 -0.1686 -1.1187 -10.9381 0.0172 0.1806 -9.1677 -0.9401 -1.6454 0.1161 -0.6873 -4.9236 -9.2442 -0.8665 -2.8153 -8.4402 -2.2995 -6.6381 0.0329 0.6363 0.0725 -5.0772 -2.2073 -4.4885 -24.3597 -2.4810 13.2714 68.7637 3.6616 -7.7814 -32.1999 1.6260 -6.2514 -3.4552 0.0000 -0.0000 -33.7851 -21.1489 -20.9040 65.0113 -9.5586 -9.6971 -25.1007 -2.1370 14.7211 1.1759 0.0000 -0.0001 
